<?xml version="1.0" standalone="no"?>
<!DOCTYPE svg PUBLIC "-//W3C//DTD SVG 20010904//EN"
 "http://www.w3.org/TR/2001/REC-SVG-20010904/DTD/svg10.dtd">
<svg version="1.0" xmlns="http://www.w3.org/2000/svg"
 width="146.000000pt" height="146.000000pt" viewBox="0 0 146.000000 146.000000"
 preserveAspectRatio="xMidYMid meet">

<g transform="translate(0.000000,146.000000) scale(0.100000,-0.100000)"
fill="#000000" stroke="none">
<path d="M790 1377 c0 -1 21 -20 48 -42 43 -35 45 -36 17 -6 -26 29 -65 58
-65 48z"/>
<path d="M618 1343 c7 -3 16 -2 19 1 4 3 -2 6 -13 5 -11 0 -14 -3 -6 -6z"/>
<path d="M689 1303 l-24 -28 28 24 c25 23 32 31 24 31 -2 0 -14 -12 -28 -27z"/>
<path d="M910 1306 c0 -2 8 -10 18 -17 15 -13 16 -12 3 4 -13 16 -21 21 -21
13z"/>
<path d="M890 1297 c0 -2 15 -16 33 -33 l32 -29 -29 33 c-28 30 -36 37 -36 29z"/>
<path d="M741 1274 c0 -11 3 -14 6 -6 3 7 2 16 -1 19 -3 4 -6 -2 -5 -13z"/>
<path d="M310 1240 c-8 -5 -10 -10 -5 -10 6 0 17 5 25 10 8 5 11 10 5 10 -5 0
-17 -5 -25 -10z"/>
<path d="M731 1224 c0 -11 3 -14 6 -6 3 7 2 16 -1 19 -3 4 -6 -2 -5 -13z"/>
<path d="M276 1203 c-6 -14 -5 -15 5 -6 7 7 10 15 7 18 -3 3 -9 -2 -12 -12z"/>
<path d="M995 1200 c10 -11 20 -20 23 -20 3 0 -3 9 -13 20 -10 11 -20 20 -23
20 -3 0 3 -9 13 -20z"/>
<path d="M1010 1216 c0 -2 8 -10 18 -17 15 -13 16 -12 3 4 -13 16 -21 21 -21
13z"/>
<path d="M1170 1197 c0 -3 12 -12 26 -22 15 -9 23 -12 20 -6 -7 11 -46 35 -46
28z"/>
<path d="M1044 1150 c0 -13 4 -16 10 -10 7 7 7 13 0 20 -6 6 -10 3 -10 -10z"/>
<path d="M1070 1157 c0 -2 15 -14 33 -27 20 -15 27 -17 18 -6 -13 16 -51 41
-51 33z"/>
<path d="M549 1133 c-13 -16 -12 -17 4 -4 9 7 17 15 17 17 0 8 -8 3 -21 -13z"/>
<path d="M440 1095 c13 -14 26 -25 28 -25 3 0 -5 11 -18 25 -13 14 -26 25 -28
25 -3 0 5 -11 18 -25z"/>
<path d="M1040 1116 c0 -2 11 -6 25 -8 13 -3 22 -1 19 3 -5 9 -44 13 -44 5z"/>
<path d="M503 1073 c-4 -10 -11 -22 -17 -26 -7 -6 -5 -7 5 -4 9 3 23 -3 32
-14 25 -28 56 -32 122 -12 49 15 61 23 63 42 2 14 0 21 -7 17 -5 -4 -8 -12 -5
-19 3 -8 -15 -18 -48 -28 -45 -14 -55 -14 -69 -3 -8 8 -21 14 -28 14 -18 0
-43 28 -36 40 3 5 4 10 0 10 -3 0 -9 -8 -12 -17z"/>
<path d="M1105 1070 c10 -11 20 -20 23 -20 3 0 -3 9 -13 20 -10 11 -20 20 -23
20 -3 0 3 -9 13 -20z"/>
<path d="M459 1013 c-13 -17 -13 -17 6 -3 11 8 22 16 24 17 2 2 0 3 -6 3 -6 0
-17 -8 -24 -17z"/>
<path d="M1222 970 c-1 -28 4 -54 14 -68 8 -12 12 -22 9 -22 -4 0 6 -12 21
-28 16 -15 39 -41 52 -57 12 -17 6 -3 -15 30 -20 33 -45 69 -54 80 -10 11 -19
40 -22 65 l-4 45 -1 -45z"/>
<path d="M520 990 c-10 -6 -11 -10 -3 -10 7 0 21 -10 33 -22 l20 -22 -2 27
c-1 14 -4 24 -7 22 -2 -3 -9 -1 -15 5 -7 5 -17 5 -26 0z"/>
<path d="M478 973 c7 -3 16 -2 19 1 4 3 -2 6 -13 5 -11 0 -14 -3 -6 -6z"/>
<path d="M405 960 c-7 -12 2 -12 30 0 19 8 19 9 -2 9 -12 1 -25 -3 -28 -9z"/>
<path d="M420 935 c0 -3 15 -22 33 -42 17 -19 31 -41 29 -47 -2 -6 0 -8 4 -4
4 4 12 4 19 -2 7 -6 22 -6 41 0 l29 9 -30 -1 c-29 -2 -85 37 -85 58 0 5 -9 15
-20 22 -11 7 -20 10 -20 7z"/>
<path d="M630 898 c24 -27 45 -48 47 -48 8 0 0 9 -44 50 l-48 45 45 -47z"/>
<path d="M381 914 c0 -11 3 -14 6 -6 3 7 2 16 -1 19 -3 4 -6 -2 -5 -13z"/>
<path d="M304 904 c-18 -14 -18 -15 4 -4 12 6 22 13 22 15 0 8 -5 6 -26 -11z"/>
<path d="M126 893 c-6 -14 -5 -15 5 -6 7 7 10 15 7 18 -3 3 -9 -2 -12 -12z"/>
<path d="M234 864 c-18 -14 -18 -15 4 -4 12 6 22 13 22 15 0 8 -5 6 -26 -11z"/>
<path d="M365 851 c-3 -16 -14 -32 -23 -34 -13 -4 -12 -5 4 -6 16 -1 23 6 28
31 8 40 0 49 -9 9z"/>
<path d="M598 853 c6 -2 18 -2 25 0 6 3 1 5 -13 5 -14 0 -19 -2 -12 -5z"/>
<path d="M283 803 c9 -2 23 -2 30 0 6 3 -1 5 -18 5 -16 0 -22 -2 -12 -5z"/>
<path d="M223 793 c9 -2 23 -2 30 0 6 3 -1 5 -18 5 -16 0 -22 -2 -12 -5z"/>
<path d="M560 797 c0 -2 15 -16 33 -33 l32 -29 -29 33 c-28 30 -36 37 -36 29z"/>
<path d="M158 783 c7 -3 16 -2 19 1 4 3 -2 6 -13 5 -11 0 -14 -3 -6 -6z"/>
<path d="M720 786 c0 -2 8 -10 18 -17 15 -13 16 -12 3 4 -13 16 -21 21 -21 13z"/>
<path d="M672 724 c-2 -49 2 -64 18 -79 11 -10 17 -23 13 -29 -3 -6 -2 -7 2
-3 5 4 38 -21 74 -55 l66 -63 -70 74 c-38 41 -75 80 -82 85 -7 6 -14 38 -16
71 l-3 60 -2 -61z"/>
<path d="M1191 694 c0 -11 3 -14 6 -6 3 7 2 16 -1 19 -3 4 -6 -2 -5 -13z"/>
<path d="M790 696 c0 -2 8 -10 18 -17 15 -13 16 -12 3 4 -13 16 -21 21 -21 13z"/>
<path d="M850 664 c0 -24 -2 -25 -17 -13 -10 8 -3 -5 16 -28 37 -48 51 -57 24
-16 -10 14 -16 39 -14 55 1 15 0 28 -3 28 -3 0 -6 -12 -6 -26z"/>
<path d="M1347 595 c-24 -50 -20 -58 4 -12 11 22 19 41 17 43 -3 2 -12 -12
-21 -31z"/>
<path d="M1182 540 c0 -19 2 -27 5 -17 2 9 2 25 0 35 -3 9 -5 1 -5 -18z"/>
<path d="M853 475 c2 -5 11 -9 21 -7 21 4 21 -28 1 -71 -15 -30 -15 -31 1 -9
23 31 35 28 90 -21 27 -24 81 -68 119 -97 39 -29 73 -58 77 -64 5 -8 8 -7 8 1
0 6 -15 24 -32 39 -18 15 -32 31 -30 36 1 5 -2 7 -6 4 -11 -7 -178 122 -174
135 1 5 -3 8 -10 7 -7 -2 -13 2 -13 7 -3 32 -18 54 -36 52 -10 -1 -18 -6 -16
-12z"/>
<path d="M953 485 c4 -5 -3 -15 -15 -22 -13 -7 -18 -12 -12 -13 5 0 18 6 29
13 15 12 16 15 4 22 -8 5 -10 4 -6 0z"/>
<path d="M990 426 c0 -2 8 -10 18 -17 15 -13 16 -12 3 4 -13 16 -21 21 -21 13z"/>
<path d="M848 413 c7 -3 16 -2 19 1 4 3 -2 6 -13 5 -11 0 -14 -3 -6 -6z"/>
<path d="M1173 360 c0 -25 2 -35 4 -22 2 12 2 32 0 45 -2 12 -4 2 -4 -23z"/>
<path d="M1020 386 c0 -2 8 -10 18 -17 15 -13 16 -12 3 4 -13 16 -21 21 -21
13z"/>
<path d="M1231 353 c-10 -26 -10 -27 4 -9 8 11 15 23 15 28 0 15 -7 8 -19 -19z"/>
<path d="M1060 336 c0 -2 8 -10 18 -17 15 -13 16 -12 3 4 -13 16 -21 21 -21
13z"/>
<path d="M220 319 c0 -5 5 -7 10 -4 6 3 10 8 10 11 0 2 -4 4 -10 4 -5 0 -10
-5 -10 -11z"/>
<path d="M1192 289 c1 -17 4 -25 8 -18 7 10 2 49 -5 49 -2 0 -3 -14 -3 -31z"/>
<path d="M768 195 c-29 -57 -55 -100 -59 -94 -4 6 -6 -1 -6 -15 0 -14 1 -26 3
-26 2 0 31 54 64 120 33 66 58 120 55 120 -3 0 -29 -47 -57 -105z"/>
<path d="M1140 266 c0 -2 7 -9 15 -16 9 -7 15 -8 15 -2 0 5 -7 12 -15 16 -8 3
-15 4 -15 2z"/>
<path d="M300 245 c0 -7 61 -37 66 -33 2 3 -12 12 -31 21 -19 9 -35 15 -35 12z"/>
<path d="M407 189 c7 -7 15 -10 18 -7 3 3 -2 9 -12 12 -14 6 -15 5 -6 -5z"/>
<path d="M474 156 c11 -9 24 -16 30 -16 12 0 7 5 -24 19 -24 11 -24 11 -6 -3z"/>
<path d="M527 129 c7 -7 15 -10 18 -7 3 3 -2 9 -12 12 -14 6 -15 5 -6 -5z"/>
</g>
</svg>
