<svg width="170" height="209" viewBox="0 0 170 209" fill="none" xmlns="http://www.w3.org/2000/svg">
<g filter="url(#filter0_d_204_297)">
<rect x="29.5259" y="14.8206" width="128" height="158" rx="10" transform="rotate(6 29.5259 14.8206)" fill="url(#paint0_linear_204_297)"/>
<rect x="30.4159" y="15.9196" width="126" height="156" rx="9" transform="rotate(6 30.4159 15.9196)" stroke="#0B1A3A" stroke-opacity="0.8" stroke-width="2"/>
</g>
<rect x="24.395" y="6.2373" width="30" height="26" rx="4" transform="rotate(-12 24.395 6.2373)" fill="#10241C"/>
<g clip-path="url(#clip0_204_297)">
<rect x="46.5911" y="24.6582" width="10" height="14" rx="2" transform="rotate(6 46.5911 24.6582)" fill="#E8C34A"/>
<rect x="62.5034" y="26.3306" width="10" height="14" rx="2" transform="rotate(6 62.5034 26.3306)" fill="#E8C34A"/>
<rect x="78.4158" y="28.0032" width="10" height="14" rx="2" transform="rotate(6 78.4158 28.0032)" fill="#E8C34A"/>
<rect x="94.3281" y="29.6755" width="10" height="14" rx="2" transform="rotate(6 94.3281 29.6755)" fill="#E8C34A"/>
<rect x="110.24" y="31.3481" width="10" height="14" rx="2" transform="rotate(6 110.24 31.3481)" fill="#E8C34A"/>
<rect x="126.153" y="33.0205" width="10" height="14" rx="2" transform="rotate(6 126.153 33.0205)" fill="#E8C34A"/>
</g>
<g clip-path="url(#clip1_204_297)">
<rect x="39.6863" y="52.0867" width="100" height="92" rx="8" transform="rotate(6 39.6863 52.0867)" fill="#F4FFFC"/>
<path d="M53.8394 94.1264L54.106 91.5904L51.4805 91.3144L52.1798 84.6611L54.8053 84.937L55.0687 82.4308L62.9752 83.2618L63.3515 79.6816L56.6086 78.9729L56.342 81.5089L52.5529 81.1106L52.9794 77.053L55.6049 77.3289L55.8746 74.7631L64.9447 75.7164L64.675 78.2822L67.3303 78.5613L66.6373 85.155L63.9819 84.8759L63.7154 87.412L55.809 86.581L55.4295 90.1911L62.1724 90.8998L62.4421 88.3339L66.261 88.7353L65.8314 92.8228L63.176 92.5437L62.9095 95.0797L53.8394 94.1264ZM71.8166 96.0159L72.0831 93.4799L69.4576 93.2039L70.9565 78.9425L73.5821 79.2184L73.8518 76.6526L82.9218 77.6059L82.6521 80.1717L85.3075 80.4508L83.8086 94.7123L81.1532 94.4332L80.8866 96.9692L71.8166 96.0159ZM73.4067 92.0805L80.1495 92.7892L81.3286 81.571L74.5857 80.8623L73.4067 92.0805ZM89.7937 97.9054L90.0603 95.3693L87.4348 95.0934L88.134 88.44L90.7596 88.716L91.023 86.2098L98.9294 87.0408L99.3058 83.4605L92.5629 82.7518L92.2963 85.2878L88.5072 84.8896L88.9337 80.8319L91.5592 81.1079L91.8289 78.542L100.899 79.4953L100.629 82.0612L103.285 82.3403L102.592 88.934L99.9362 88.6549L99.6697 91.1909L91.7632 90.3599L91.3838 93.97L98.1267 94.6787L98.3964 92.1129L102.215 92.5142L101.786 96.6017L99.1303 96.3226L98.8638 98.8587L89.7937 97.9054ZM107.771 99.7948L108.037 97.2588L105.412 96.9829L105.842 92.8954L109.631 93.2936L109.361 95.8595L116.104 96.5682L116.483 92.9581L108.577 92.1271L109 88.0993L116.907 88.9303L117.283 85.35L110.54 84.6413L110.273 87.1773L106.484 86.7791L106.911 82.7214L109.536 82.9974L109.806 80.4315L118.876 81.3848L118.606 83.9507L121.262 84.2298L120.569 90.8234L117.913 90.5444L117.807 91.5588L120.462 91.8379L119.763 98.4912L117.107 98.2121L116.841 100.748L107.771 99.7948Z" fill="#1F3B2C"/>
<path d="M47.7087 116.404L48.2761 111.006L49.6256 111.148L49.0583 116.546L47.7087 116.404ZM48.3362 110.434L48.4864 109.004L49.836 109.146L49.6857 110.576L48.3362 110.434ZM50.2329 116.669L50.8003 111.271L55.2035 111.734L55.0989 112.729L56.1283 112.837L55.6655 117.24L54.3044 117.097L54.7228 113.117L52.0008 112.831L51.5824 116.811L50.2329 116.669ZM56.8337 117.363L56.9828 115.945L61.0544 116.373L61.1145 115.801L58.0608 115.48L58.1666 114.474L57.1487 114.367L57.2965 112.96L58.3144 113.067L58.419 112.072L62.8337 112.536L62.6846 113.954L58.6016 113.525L58.5427 114.085L61.5964 114.406L61.4906 115.413L62.5199 115.521L62.3697 116.95L61.3403 116.842L61.237 117.826L56.8337 117.363ZM64.4525 118.164L64.5558 117.18L63.5379 117.073L63.8974 113.654L64.9153 113.761L65.0198 112.766L68.4052 113.121L68.3006 114.116L69.3299 114.225L69.1821 115.631L67.8211 115.488L67.9245 114.505L65.2025 114.219L65.1436 114.779L67.1908 114.994L67.0405 116.424L64.9933 116.209L64.9332 116.781L67.6552 117.067L67.761 116.06L69.122 116.203L68.9717 117.633L67.9424 117.525L67.8378 118.52L64.4525 118.164ZM70.2588 118.774L70.7216 114.371L71.7395 114.478L71.8441 113.483L75.2294 113.839L75.1248 114.834L76.1542 114.942L76.0063 116.349L74.6453 116.206L74.7487 115.222L72.0267 114.936L71.6084 118.916L70.2588 118.774ZM79.1074 119.704L79.2108 118.721L78.2043 118.615L78.5192 115.618L77.5013 115.511L77.6504 114.093L78.6683 114.2L78.8787 112.199L80.2282 112.34L80.0179 114.342L83.083 114.664L82.9339 116.082L79.8688 115.76L79.5995 118.322L82.333 118.609L82.4376 117.614L83.7986 117.757L83.6483 119.187L82.619 119.079L82.5156 120.062L79.1074 119.704ZM87.1609 118.411L87.5179 115.015L90.7356 117.076L87.1609 118.411Z" fill="#5B6B7E"/>
<rect x="31.9512" y="125.681" width="100" height="10" transform="rotate(6 31.9512 125.681)" fill="#9DBFE8"/>
</g>
<path d="M35.949 159.394L36.0388 158.539L35.1537 158.446L35.6481 153.741L36.5333 153.835L36.6253 152.959L39.569 153.269L39.4771 154.144L40.3721 154.238L40.1516 156.336L38.9681 156.212L39.15 154.482L36.783 154.233L36.367 158.191L38.7339 158.44L38.9169 156.699L40.1003 156.824L39.8777 158.942L38.9826 158.848L38.8927 159.703L35.949 159.394ZM42.8776 160.122L42.9675 159.267L42.0824 159.174L42.6688 153.595L43.8423 153.718L43.2956 158.919L45.6626 159.168L46.2093 153.967L47.3927 154.091L46.8063 159.67L45.9113 159.576L45.8214 160.432L42.8776 160.122ZM49.8062 160.85L49.8961 159.995L49.011 159.902L49.1416 158.659L50.3152 158.782L50.2242 159.647L52.5912 159.896L52.7355 158.524L50.0801 158.245L50.17 157.389L49.2849 157.296L49.5054 155.198L50.3905 155.291L50.4825 154.416L53.4263 154.725L53.3343 155.6L54.2294 155.694L54.0998 156.928L52.9163 156.803L53.0072 155.938L50.6403 155.689L50.4971 157.052L53.1524 157.331L53.0625 158.186L53.9576 158.28L53.735 160.399L52.8399 160.304L52.75 161.16L49.8062 160.85ZM56.7348 161.579L56.8247 160.723L55.9396 160.63L56.434 155.926L57.3192 156.019L57.4111 155.144L60.3549 155.453L60.2629 156.329L61.158 156.423L61.0284 157.656L59.8449 157.531L59.9359 156.666L57.5689 156.417L57.4257 157.78L59.2059 157.967L59.0773 159.19L57.2971 159.003L57.1529 160.376L59.5198 160.624L59.6108 159.759L60.7943 159.884L60.6636 161.127L59.7685 161.033L59.6786 161.888L56.7348 161.579ZM63.6635 162.307L63.7534 161.452L62.8683 161.358L63.3627 156.654L64.2478 156.747L64.3398 155.872L67.2836 156.182L67.1916 157.057L68.0866 157.151L67.8661 159.249L66.6826 159.125L66.8645 157.394L64.4975 157.146L64.0815 161.104L66.4485 161.353L66.6314 159.612L67.8149 159.737L67.5922 161.855L66.6972 161.761L66.6073 162.616L63.6635 162.307ZM69.9871 160.277L70.1167 159.043L71.2903 159.167L71.1607 160.4L69.9871 160.277ZM73.9758 163.391L74.0657 162.535L73.1806 162.442L73.3112 161.199L74.4848 161.323L74.3938 162.188L76.7608 162.437L76.9051 161.064L74.2497 160.785L74.3396 159.93L73.4545 159.837L73.675 157.738L74.5601 157.831L74.6521 156.956L77.5959 157.266L77.5039 158.141L78.399 158.235L78.2694 159.468L77.0859 159.344L77.1768 158.478L74.8099 158.23L74.6667 159.592L77.322 159.871L77.2321 160.726L78.1272 160.821L77.9046 162.939L77.0095 162.845L76.9196 163.7L73.9758 163.391ZM80.0193 164.026L80.6956 157.591L83.6494 157.902L83.5574 158.777L84.4325 158.869L84.3416 159.734L85.2367 159.828L84.9252 162.792L84.0301 162.698L83.9381 163.573L83.063 163.481L82.9731 164.336L80.0193 164.026ZM81.3225 162.916L82.8043 163.072L82.8953 162.207L83.7804 162.3L84.0145 160.072L83.1294 159.979L83.2203 159.114L81.7385 158.958L81.3225 162.916Z" fill="#F4FFFC" fill-opacity="0.7"/>
<defs>
<filter id="filter0_d_204_297" x="-0.989502" y="10.8206" width="171.814" height="198.514" filterUnits="userSpaceOnUse" color-interpolation-filters="sRGB">
<feFlood flood-opacity="0" result="BackgroundImageFix"/>
<feColorMatrix in="SourceAlpha" type="matrix" values="0 0 0 0 0 0 0 0 0 0 0 0 0 0 0 0 0 0 127 0" result="hardAlpha"/>
<feMorphology radius="4" operator="erode" in="SourceAlpha" result="effect1_dropShadow_204_297"/>
<feOffset dy="10"/>
<feGaussianBlur stdDeviation="9"/>
<feColorMatrix type="matrix" values="0 0 0 0 0.0431373 0 0 0 0 0.101961 0 0 0 0 0.227451 0 0 0 0.5 0"/>
<feBlend mode="normal" in2="BackgroundImageFix" result="effect1_dropShadow_204_297"/>
<feBlend mode="normal" in="SourceGraphic" in2="effect1_dropShadow_204_297" result="shape"/>
</filter>
<linearGradient id="paint0_linear_204_297" x1="93.5259" y1="14.8206" x2="93.5259" y2="172.821" gradientUnits="userSpaceOnUse">
<stop stop-color="#8A1F5A"/>
<stop offset="1" stop-color="#571239"/>
</linearGradient>
<clipPath id="clip0_204_297">
<rect width="96" height="16" fill="white" transform="translate(46.5911 24.6582) rotate(6)"/>
</clipPath>
<clipPath id="clip1_204_297">
<rect x="39.6863" y="52.0867" width="100" height="92" rx="8" transform="rotate(6 39.6863 52.0867)" fill="white"/>
</clipPath>
</defs>
</svg>
