<svg width="168" height="200" viewBox="0 0 168 200" fill="none" xmlns="http://www.w3.org/2000/svg">
<g filter="url(#filter0_d_204_282)">
<rect x="13.167" y="19.1685" width="128" height="158" rx="10" transform="rotate(-5 13.167 19.1685)" fill="url(#paint0_linear_204_282)"/>
<rect x="14.2503" y="20.0775" width="126" height="156" rx="9" transform="rotate(-5 14.2503 20.0775)" stroke="#0B1A3A" stroke-opacity="0.8" stroke-width="2"/>
</g>
<rect x="6.49268" y="11.7219" width="30" height="26" rx="4" transform="rotate(-23 6.49268 11.7219)" fill="#10241C"/>
<g clip-path="url(#clip0_204_282)">
<rect x="31.7957" y="25.5691" width="10" height="14" rx="2" transform="rotate(-5 31.7957 25.5691)" fill="#E8C34A"/>
<rect x="47.7349" y="24.1746" width="10" height="14" rx="2" transform="rotate(-5 47.7349 24.1746)" fill="#E8C34A"/>
<rect x="63.6738" y="22.78" width="10" height="14" rx="2" transform="rotate(-5 63.6738 22.78)" fill="#E8C34A"/>
<rect x="79.613" y="21.3855" width="10" height="14" rx="2" transform="rotate(-5 79.613 21.3855)" fill="#E8C34A"/>
<rect x="95.552" y="19.9912" width="10" height="14" rx="2" transform="rotate(-5 95.552 19.9912)" fill="#E8C34A"/>
<rect x="111.491" y="18.5967" width="10" height="14" rx="2" transform="rotate(-5 111.491 18.5967)" fill="#E8C34A"/>
</g>
<g clip-path="url(#clip1_204_282)">
<rect x="30.2512" y="53.8113" width="100" height="92" rx="8" transform="rotate(-5 30.2512 53.8113)" fill="#F4FFFC"/>
<path d="M52.166 92.378L51.9438 89.8377L49.3138 90.0678L48.7307 83.4033L51.3607 83.1732L51.1411 80.6628L59.0608 79.9699L58.747 76.3836L51.9928 76.9745L52.2151 79.5148L48.4196 79.8469L48.064 75.7824L50.6939 75.5523L50.4691 72.9821L59.5544 72.1872L59.7792 74.7574L62.4391 74.5247L63.0169 81.1295L60.3571 81.3622L60.5793 83.9025L52.6596 84.5954L52.976 88.2116L59.7302 87.6207L59.5053 85.0505L63.3307 84.7158L63.6889 88.8102L61.0291 89.0429L61.2513 91.5832L52.166 92.378ZM70.1734 90.8026L69.9511 88.2623L67.3212 88.4924L66.0714 74.2069L68.7013 73.9768L68.4765 71.4067L77.5618 70.6118L77.7866 73.182L80.4465 72.9493L81.6963 87.2347L79.0364 87.4674L79.2587 90.0077L70.1734 90.8026ZM70.9833 86.6361L77.7375 86.0452L76.7544 74.8081L70.0002 75.3991L70.9833 86.6361ZM88.1808 89.2271L87.9585 86.6868L85.3286 86.9169L84.7455 80.2524L87.3755 80.0223L87.1558 77.5119L95.0756 76.819L94.7618 73.2327L88.0076 73.8236L88.2299 76.3639L84.4344 76.696L84.0788 72.6315L86.7087 72.4014L86.4839 69.8312L95.5692 69.0364L95.794 71.6065L98.4539 71.3738L99.0317 77.9786L96.3719 78.2113L96.5941 80.7516L88.6744 81.4445L88.9907 85.0607L95.7449 84.4698L95.5201 81.8996L99.3455 81.5649L99.7037 85.6593L97.0438 85.892L97.2661 88.4323L88.1808 89.2271ZM114.108 86.9588L113.661 81.8483L103.111 82.7713L102.533 76.1665L105.163 75.9364L104.938 73.3663L107.568 73.1362L107.346 70.5959L110.006 70.3632L109.781 67.793L116.236 67.2282L117.933 86.6241L114.108 86.9588ZM106.548 78.3449L113.303 77.754L112.769 71.6573L111.305 71.7854L111.527 74.3257L108.867 74.5584L109.089 77.0987L106.46 77.3288L106.548 78.3449Z" fill="#1F3B2C"/>
<path d="M50.3985 115.416L49.9255 110.009L51.2773 109.891L51.7504 115.298L50.3985 115.416ZM49.8754 109.436L49.7501 108.004L51.1019 107.886L51.2272 109.318L49.8754 109.436ZM52.927 115.195L52.4539 109.788L56.8645 109.402L56.9517 110.399L57.9828 110.308L58.3687 114.719L57.0054 114.838L56.6566 110.852L53.93 111.09L54.2788 115.077L52.927 115.195ZM59.5389 114.617L59.4146 113.196L63.4931 112.839L63.443 112.266L60.3841 112.534L60.2959 111.526L59.2763 111.615L59.153 110.206L60.1727 110.117L60.0855 109.12L64.5076 108.733L64.6318 110.154L60.542 110.512L60.5911 111.073L63.6499 110.805L63.7381 111.814L64.7692 111.723L64.8944 113.155L63.8634 113.246L63.9496 114.231L59.5389 114.617ZM67.1705 113.949L67.0843 112.964L66.0647 113.053L65.765 109.628L66.7846 109.538L66.6974 108.542L70.0884 108.245L70.1756 109.242L71.2067 109.151L71.33 110.561L69.9667 110.68L69.8805 109.695L67.1539 109.933L67.203 110.494L69.2537 110.315L69.379 111.747L67.3283 111.927L67.3784 112.499L70.105 112.261L70.0168 111.253L71.3801 111.133L71.5054 112.565L70.4743 112.656L70.5615 113.652L67.1705 113.949ZM72.9866 113.44L72.6007 109.029L73.6203 108.94L73.5331 107.944L76.9242 107.647L77.0114 108.644L78.0424 108.553L78.1657 109.963L76.8024 110.082L76.7162 109.097L73.9896 109.335L74.3384 113.322L72.9866 113.44ZM81.85 112.665L81.7638 111.679L80.7557 111.768L80.4931 108.766L79.4735 108.855L79.3492 107.435L80.3688 107.346L80.1934 105.341L81.5452 105.222L81.7206 107.227L84.7909 106.959L84.9152 108.379L81.8449 108.648L82.0694 111.214L84.8075 110.974L84.7203 109.978L86.0836 109.859L86.2089 111.291L85.1778 111.381L85.264 112.366L81.85 112.665ZM89.5089 109.859L89.2112 106.456L92.7631 107.866L89.5089 109.859Z" fill="#5B6B7E"/>
<rect x="36.7007" y="127.53" width="100" height="10" transform="rotate(-5 36.7007 127.53)" fill="#9DBFE8"/>
</g>
<path d="M47.0581 159.86L46.9831 159.003L46.0965 159.081L45.6842 154.369L46.5709 154.291L46.4942 153.415L49.4429 153.157L49.5196 154.033L50.4162 153.955L50.6001 156.057L49.4146 156.161L49.2629 154.427L46.892 154.635L47.2389 158.6L49.6098 158.392L49.4573 156.649L50.6428 156.545L50.8284 158.667L49.9318 158.745L50.0068 159.602L47.0581 159.86ZM53.9983 159.253L53.9234 158.396L53.0368 158.474L52.5478 152.885L53.7233 152.782L54.1792 157.992L56.5501 157.785L56.0943 152.575L57.2798 152.471L57.7687 158.06L56.8721 158.138L56.9471 158.995L53.9983 159.253ZM60.9386 158.646L60.8637 157.789L59.9771 157.867L59.8681 156.621L61.0436 156.518L61.1195 157.385L63.4904 157.178L63.3701 155.803L60.7103 156.036L60.6353 155.179L59.7487 155.257L59.5648 153.155L60.4514 153.077L60.3747 152.2L63.3235 151.942L63.4002 152.819L64.2967 152.741L64.4048 153.976L63.2193 154.08L63.1435 153.213L60.7726 153.42L60.892 154.785L63.5518 154.552L63.6268 155.409L64.5233 155.331L64.709 157.453L63.8124 157.531L63.8874 158.388L60.9386 158.646ZM67.8789 158.039L67.804 157.182L66.9173 157.259L66.5051 152.547L67.3917 152.47L67.315 151.593L70.2638 151.335L70.3405 152.212L71.237 152.133L71.3451 153.369L70.1596 153.472L70.0838 152.606L67.7129 152.813L67.8323 154.178L69.6155 154.022L69.7227 155.247L67.9395 155.403L68.0597 156.778L70.4307 156.571L70.3549 155.704L71.5403 155.6L71.6493 156.845L70.7527 156.924L70.8277 157.781L67.8789 158.039ZM74.8192 157.431L74.7442 156.575L73.8576 156.652L73.4454 151.94L74.332 151.863L74.2553 150.986L77.204 150.728L77.2807 151.605L78.1773 151.526L78.3612 153.628L77.1757 153.732L77.0241 151.998L74.6531 152.206L75 156.171L77.371 155.963L77.2184 154.22L78.4039 154.116L78.5896 156.238L77.693 156.317L77.7679 157.173L74.8192 157.431ZM80.6393 154.232L80.5312 152.997L81.7067 152.894L81.8148 154.129L80.6393 154.232ZM85.1489 156.528L85.0739 155.671L84.1873 155.748L84.0784 154.503L85.2539 154.4L85.3297 155.267L87.7007 155.06L87.5804 153.685L84.9205 153.918L84.8456 153.061L83.959 153.138L83.7751 151.036L84.6617 150.959L84.585 150.082L87.5337 149.824L87.6104 150.701L88.507 150.622L88.6151 151.858L87.4296 151.961L87.3538 151.095L84.9828 151.302L85.1022 152.667L87.7621 152.434L87.837 153.291L88.7336 153.213L88.9192 155.334L88.0227 155.413L88.0976 156.27L85.1489 156.528ZM91.2026 155.998L90.6387 149.553L93.5974 149.294L93.6741 150.17L94.5507 150.094L94.6265 150.96L95.5231 150.882L95.7828 153.851L94.8863 153.929L94.963 154.806L94.0863 154.882L94.1613 155.739L91.2026 155.998ZM92.27 154.66L93.7543 154.53L93.6785 153.663L94.5651 153.586L94.3699 151.354L93.4833 151.432L93.4074 150.565L91.9231 150.695L92.27 154.66Z" fill="#F4FFFC" fill-opacity="0.7"/>
<defs>
<filter id="filter0_d_204_282" x="-0.833008" y="4.01245" width="169.283" height="196.555" filterUnits="userSpaceOnUse" color-interpolation-filters="sRGB">
<feFlood flood-opacity="0" result="BackgroundImageFix"/>
<feColorMatrix in="SourceAlpha" type="matrix" values="0 0 0 0 0 0 0 0 0 0 0 0 0 0 0 0 0 0 127 0" result="hardAlpha"/>
<feMorphology radius="4" operator="erode" in="SourceAlpha" result="effect1_dropShadow_204_282"/>
<feOffset dy="10"/>
<feGaussianBlur stdDeviation="9"/>
<feColorMatrix type="matrix" values="0 0 0 0 0.0431373 0 0 0 0 0.101961 0 0 0 0 0.227451 0 0 0 0.5 0"/>
<feBlend mode="normal" in2="BackgroundImageFix" result="effect1_dropShadow_204_282"/>
<feBlend mode="normal" in="SourceGraphic" in2="effect1_dropShadow_204_282" result="shape"/>
</filter>
<linearGradient id="paint0_linear_204_282" x1="77.167" y1="19.1685" x2="77.167" y2="177.168" gradientUnits="userSpaceOnUse">
<stop stop-color="#4D7111"/>
<stop offset="1" stop-color="#2C4310"/>
</linearGradient>
<clipPath id="clip0_204_282">
<rect width="96" height="16" fill="white" transform="translate(31.7957 25.5691) rotate(-5)"/>
</clipPath>
<clipPath id="clip1_204_282">
<rect x="30.2512" y="53.8113" width="100" height="92" rx="8" transform="rotate(-5 30.2512 53.8113)" fill="white"/>
</clipPath>
</defs>
</svg>
